<?xml version="1.0" encoding="UTF-8"?>
<svg id="_Слой_1" data-name="Слой_1" xmlns="http://www.w3.org/2000/svg" version="1.1" viewBox="0 0 595.28 419.53">
  <!-- Generator: Adobe Illustrator 29.8.1, SVG Export Plug-In . SVG Version: 2.1.1 Build 2)  -->
  <defs>
    <style>
      .st0 {
        fill: #57b7e1;
      }
    </style>
  </defs>
  <path class="st0" d="M329.79,113.25c-.56-3.07-1.99-7.99-3.36-10.67-3.35-6.59-11.48-13.04-13.87-20.61-3.23-10.26,5.24-22.28,12.25-28.24,1.93-1.64,3.72-2.76,4.97-3.47-.94,3.17-1.96,7.82-1.97,13.49,0,2.86-.49,8.12,1.99,13.59,2.35,5.21,6.22,7.24,8.53,14.86,2.47,8.2-2.08,16.84-8.54,21.05Z"/>
  <path class="st0" d="M408.98,208.54c-10.11-5.79-21.88-2.55-25.4-1.53-14,4.07-21.9,13.91-24.68,11.5-.7-.6-.72-1.65-.69-2.26.25-6.83,4-15.61,4.56-23.51,1.82-25.67-1.91-45.64-25.1-58.89-20.05-11.45-26.9-14.11-36.71-22.32-7.52-6.3-16.24-17.56-20.17-39.28-16.74,31.04-14.87,47.68-9.72,57.2,2.62,4.85,4.2,4.91,9.12,12.88,6.94,11.22,14.96,30.58,7.04,42.87-6.46,10.02-17.53,7.69-26.14,2.24-12.74-8.06-11.95-30.2-9.31-43.19-15.16-.69-33.48,11.72-38.77,25.72-12.07,31.88,26.14,60.34,15.16,85.17-9.41,21.29-32.92-.72-39.41-12.89-1.15,2.26-2.63,5.54-3.85,9.65-8.1,27.33,5.45,58.02,23.57,76.41,17.33,17.59,37.58,22.66,46.88,24.86,6.25,1.47,55,12.2,89.32-17.93,21.12-18.55,28.31-45.15,29.62-49.98,4.91-18.16,1.58-28.04,9.65-43.34,6.35-12.01,17.18-24.02,28.82-30.69-.82-.71-2.09-1.72-3.79-2.69ZM324.54,302.51c-5.35,28.59-58.45,30.03-71.74,7.21-5.6-9.62-4.64-25.39,1.99-35.97,7.44-11.89,20.58-15.58,20.83-26.37.09-3.92-1.55-7.14-2.84-9.13,5.19.78,10.87,2.33,16.33,4.43,3.76,1.44,9.28,3.59,15.04,7.74,11.28,8.14,16.21,18.79,17.15,20.89,1.85,4.15,5.64,18.37,3.24,31.2Z"/>
</svg>
